<svg width="9327" height="3000" viewBox="0 0 9327 3000" fill="none" xmlns="http://www.w3.org/2000/svg">
<path d="M2715 2407.5C2600 2407.5 2495 2377.92 2400 2318.75C2305.83 2259.58 2230.42 2180.42 2173.75 2081.25C2117.92 1981.25 2090 1870.83 2090 1750C2090 1658.33 2106.25 1572.92 2138.75 1493.75C2171.25 1413.75 2215.83 1343.75 2272.5 1283.75C2330 1222.92 2396.67 1175.42 2472.5 1141.25C2548.33 1107.08 2629.17 1090 2715 1090C2809.17 1090 2895.42 1109.17 2973.75 1147.5C3052.92 1185 3120.42 1237.5 3176.25 1305C3232.92 1372.5 3275 1450.83 3302.5 1540C3330.83 1629.17 3341.25 1724.58 3333.75 1826.25H2313.75C2323.75 1897.08 2347.08 1960.42 2383.75 2016.25C2420.42 2071.25 2467.08 2115 2523.75 2147.5C2581.25 2180 2645 2196.67 2715 2197.5C2790 2197.5 2857.92 2178.33 2918.75 2140C2979.58 2100.83 3028.75 2047.5 3066.25 1980L3280 2030C3230 2140.83 3154.58 2231.67 3053.75 2302.5C2952.92 2372.5 2840 2407.5 2715 2407.5ZM2307.5 1661.25H3122.5C3115.83 1591.25 3093.33 1527.5 3055 1470C3016.67 1411.67 2967.92 1365 2908.75 1330C2849.58 1295 2785 1277.5 2715 1277.5C2645 1277.5 2580.83 1294.58 2522.5 1328.75C2464.17 1362.92 2415.83 1409.17 2377.5 1467.5C2340 1525 2316.67 1589.58 2307.5 1661.25ZM3532.19 2375V500H3742.19V2375H3532.19ZM4042.44 2375V500H4252.44V2375H4042.44ZM5090.49 2407.5C4975.49 2407.5 4870.49 2377.92 4775.49 2318.75C4681.32 2259.58 4605.9 2180.42 4549.24 2081.25C4493.4 1981.25 4465.49 1870.83 4465.49 1750C4465.49 1658.33 4481.74 1572.92 4514.24 1493.75C4546.74 1413.75 4591.32 1343.75 4647.99 1283.75C4705.49 1222.92 4772.15 1175.42 4847.99 1141.25C4923.82 1107.08 5004.65 1090 5090.49 1090C5205.49 1090 5310.07 1119.58 5404.24 1178.75C5499.24 1237.92 5574.66 1317.5 5630.49 1417.5C5687.16 1517.5 5715.49 1628.33 5715.49 1750C5715.49 1840.83 5699.24 1925.83 5666.74 2005C5634.24 2084.17 5589.24 2154.17 5531.74 2215C5475.07 2275 5408.82 2322.08 5332.99 2356.25C5257.99 2390.42 5177.15 2407.5 5090.49 2407.5ZM5090.49 2197.5C5168.82 2197.5 5239.24 2177.08 5301.74 2136.25C5365.07 2094.58 5414.66 2040 5450.49 1972.5C5487.15 1904.17 5505.49 1830 5505.49 1750C5505.49 1668.33 5486.74 1593.33 5449.24 1525C5412.57 1456.67 5362.99 1402.08 5300.49 1361.25C5237.99 1320.42 5167.99 1300 5090.49 1300C5012.15 1300 4941.74 1320.83 4879.24 1362.5C4816.74 1403.33 4767.15 1457.92 4730.49 1526.25C4693.82 1594.58 4675.49 1669.17 4675.49 1750C4675.49 1833.33 4694.24 1909.17 4731.74 1977.5C4769.24 2045 4819.65 2098.75 4882.99 2138.75C4946.32 2177.92 5015.49 2197.5 5090.49 2197.5Z" fill="white"/>
<path d="M0 731C0 620.543 89.5431 531 200 531H366C476.457 531 566 620.543 566 731V2269C566 2379.46 476.457 2469 366 2469H0V731Z" fill="#FFDE36"/>
<path d="M640 731C640 620.543 729.543 531 840 531H1206V1620C1206 1730.46 1116.46 1820 1006 1820H840C729.543 1820 640 1730.46 640 1620V731Z" fill="#FFDE36"/>
<path d="M1280 531H1646C1756.46 531 1846 620.543 1846 731V2269C1846 2379.46 1756.46 2469 1646 2469H1480C1369.54 2469 1280 2379.46 1280 2269V531Z" fill="#FFDE36"/>
<rect x="5959" y="1329" width="3368" height="1271" rx="635.5" fill="white"/>
<path d="M6355 2315V1815H6459V1868C6476.33 1847.33 6497.5 1831 6522.5 1819C6547.83 1807 6575.17 1801 6604.5 1801C6640.17 1801 6673 1809.67 6703 1827C6733 1844 6756.83 1866.67 6774.5 1895C6792.17 1866.67 6815.67 1844 6845 1827C6874.67 1809.67 6907.33 1801 6943 1801C6980 1801 7013.67 1810 7044 1828C7074.33 1846 7098.5 1870.17 7116.5 1900.5C7134.5 1930.83 7143.5 1964.5 7143.5 2001.5V2315H7039.5V2028C7039.5 2006 7034.17 1985.83 7023.5 1967.5C7012.83 1949.17 6998.5 1934.33 6980.5 1923C6962.5 1911.67 6942.5 1906 6920.5 1906C6898.5 1906 6878.5 1911.33 6860.5 1922C6842.5 1932.67 6828.17 1947.17 6817.5 1965.5C6806.83 1983.83 6801.5 2004.67 6801.5 2028V2315H6697.5V2028C6697.5 2004.67 6692.17 1983.83 6681.5 1965.5C6670.83 1947.17 6656.33 1932.67 6638 1922C6620 1911.33 6600 1906 6578 1906C6556.33 1906 6536.33 1911.67 6518 1923C6500 1934.33 6485.67 1949.17 6475 1967.5C6464.33 1985.83 6459 2006 6459 2028V2315H6355ZM7243.67 1815H7347.67V2315H7243.67V1815ZM7296.67 1742.5C7280.67 1742.5 7267.34 1737.33 7256.67 1727C7246.01 1716.67 7240.67 1703.67 7240.67 1688C7240.67 1672.67 7246.01 1659.83 7256.67 1649.5C7267.34 1638.83 7280.51 1633.5 7296.17 1633.5C7311.51 1633.5 7324.51 1638.83 7335.17 1649.5C7345.84 1659.83 7351.17 1672.67 7351.17 1688C7351.17 1703.67 7345.84 1716.67 7335.17 1727C7324.84 1737.33 7312.01 1742.5 7296.67 1742.5ZM7913.4 2001.5V2315H7809.4V2027C7809.4 2004.67 7803.9 1984.33 7792.9 1966C7782.23 1947.67 7767.73 1933.17 7749.4 1922.5C7731.4 1911.5 7711.07 1906 7688.4 1906C7666.4 1906 7646.23 1911.5 7627.9 1922.5C7609.57 1933.17 7594.9 1947.67 7583.9 1966C7572.9 1984.33 7567.4 2004.67 7567.4 2027V2315H7463.4V1815H7567.4V1868C7584.73 1847.33 7606.07 1831 7631.4 1819C7656.73 1807 7684.07 1801 7713.4 1801C7750.4 1801 7784.07 1810 7814.4 1828C7844.73 1846 7868.73 1870.17 7886.4 1900.5C7904.4 1930.83 7913.4 1964.5 7913.4 2001.5ZM8392.94 1565H8496.94V2315H8392.94V2241.5C8376.6 2267.5 8355.27 2288.5 8328.94 2304.5C8302.6 2320.17 8271.77 2328 8236.44 2328C8200.1 2328 8166.1 2321.17 8134.44 2307.5C8102.77 2293.83 8074.77 2275 8050.44 2251C8026.44 2226.67 8007.6 2198.67 7993.94 2167C7980.27 2135.33 7973.44 2101.33 7973.44 2065C7973.44 2028.67 7980.27 1994.67 7993.94 1963C8007.6 1931 8026.44 1903 8050.44 1879C8074.77 1854.67 8102.77 1835.67 8134.44 1822C8166.1 1808.33 8200.1 1801.5 8236.44 1801.5C8271.77 1801.5 8302.6 1809.5 8328.94 1825.5C8355.27 1841.17 8376.6 1861.83 8392.94 1887.5V1565ZM8237.44 2227.5C8266.77 2227.5 8292.44 2220.33 8314.44 2206C8336.44 2191.33 8353.44 2171.67 8365.44 2147C8377.77 2122.33 8383.94 2095 8383.94 2065C8383.94 2034.67 8377.77 2007.17 8365.44 1982.5C8353.1 1957.83 8335.94 1938.33 8313.94 1924C8292.27 1909.33 8266.77 1902 8237.44 1902C8208.44 1902 8181.94 1909.33 8157.94 1924C8134.27 1938.67 8115.27 1958.33 8100.94 1983C8086.94 2007.67 8079.94 2035 8079.94 2065C8079.94 2095.33 8087.1 2122.83 8101.44 2147.5C8116.1 2171.83 8135.27 2191.33 8158.94 2206C8182.94 2220.33 8209.1 2227.5 8237.44 2227.5ZM8766.72 2324.5C8740.39 2322.83 8714.72 2317.5 8689.72 2308.5C8664.72 2299.5 8642.72 2287.33 8623.72 2272C8605.05 2256.33 8591.05 2238 8581.72 2217L8670.22 2179C8674.55 2188 8682.05 2196.83 8692.72 2205.5C8703.72 2214.17 8716.55 2221.33 8731.22 2227C8745.89 2232.33 8761.22 2235 8777.22 2235C8792.89 2235 8807.39 2232.83 8820.72 2228.5C8834.39 2223.83 8845.55 2216.83 8854.22 2207.5C8862.89 2198.17 8867.22 2187 8867.22 2174C8867.22 2159.33 8862.22 2148 8852.22 2140C8842.55 2131.67 8830.39 2125.33 8815.72 2121C8801.05 2116.67 8786.39 2112.5 8771.72 2108.5C8739.05 2101.17 8709.05 2091.17 8681.72 2078.5C8654.72 2065.5 8633.22 2049 8617.22 2029C8601.22 2008.67 8593.22 1983.83 8593.22 1954.5C8593.22 1922.5 8601.89 1894.83 8619.22 1871.5C8636.55 1847.83 8659.22 1829.67 8687.22 1817C8715.55 1804.33 8745.72 1798 8777.72 1798C8817.72 1798 8854.39 1806.5 8887.72 1823.5C8921.05 1840.5 8946.55 1863.83 8964.22 1893.5L8881.72 1942.5C8876.72 1932.5 8869.22 1923.5 8859.22 1915.5C8849.22 1907.5 8837.89 1901.17 8825.22 1896.5C8812.55 1891.5 8799.39 1888.67 8785.72 1888C8768.72 1887.33 8752.89 1889.33 8738.22 1894C8723.89 1898.33 8712.39 1905.33 8703.72 1915C8695.05 1924.67 8690.72 1937 8690.72 1952C8690.72 1966.67 8695.89 1977.67 8706.22 1985C8716.55 1992 8729.55 1997.67 8745.22 2002C8761.22 2006.33 8777.55 2011.17 8794.22 2016.5C8823.89 2025.83 8851.72 2037.33 8877.72 2051C8903.72 2064.33 8924.72 2080.83 8940.72 2100.5C8956.72 2120.17 8964.39 2144.17 8963.72 2172.5C8963.72 2203.83 8954.22 2231.33 8935.22 2255C8916.55 2278.67 8892.22 2296.67 8862.22 2309C8832.22 2321.33 8800.39 2326.5 8766.72 2324.5Z" fill="black"/>
</svg>
